<?xml version="1.0" encoding="utf-8"?>
<!-- Svg Vector Icons : http://www.onlinewebfonts.com/icon -->
<!DOCTYPE svg PUBLIC "-//W3C//DTD SVG 1.1//EN" "http://www.w3.org/Graphics/SVG/1.1/DTD/svg11.dtd">
<svg version="1.1" xmlns="http://www.w3.org/2000/svg" xmlns:xlink="http://www.w3.org/1999/xlink" x="0px" y="0px" viewBox="0 0 1000 1000" enable-background="new 0 0 1000 1000" xml:space="preserve">
<metadata> Svg Vector Icons : http://www.onlinewebfonts.com/icon </metadata>
<g><path d="M308.9,341c121.6,61.6,224.2,58.1,224.2,58.1s-38.9-136.3,81.4-196.8c120.3-60.5,203.3,41.4,203.3,41.4s21-5.8,36.6-11.6c15.7-5.8,38.3-16.1,38.3-16.1l-37.1,66.5l57.2-6.1c0,0-7,10.3-29.9,31.4c-22.9,21.1-32.3,32-32.3,32s8.2,164.1-77.9,290.5c-86.1,126.4-197.2,202.2-358.8,218.1c-161.5,16-266.8-49.8-266.8-49.8s70.7-4.1,115.7-21.3s109.8-62.8,109.8-62.8s-92.1-28.5-125.1-60.5c-33-32-41.3-50.9-41.3-50.9l90.9-1.1c0,0-95.6-50.9-122.7-91.3c-27.1-40.3-30.7-79.4-30.7-79.4l69.9,28.4c0,0-58.1-79.3-66.4-141c-8.3-61.7,10.7-94.8,10.7-94.8S187.3,279.3,308.9,341z M687.8,10H312.2c-106.5,0-174,0.5-237.9,64.2C10.5,138.2,10,206,10,312.2v375.7c0,106.5,0.5,174,64.2,237.9c64,64,131.8,64.3,238,64.3h375.7c106.5,0,174-0.5,237.9-64.2c63.9-64,64.3-131.8,64.3-238V312.2c0-106.5-0.5-174-64.2-237.9C861.8,10.3,794,10,687.8,10z"/></g>
</svg>